<svg version="1.2" xmlns="http://www.w3.org/2000/svg" viewBox="0 0 90 69" width="90" height="69">
	<title>noun-equity-1054753-svg</title>
	<style>
		tspan { white-space:pre } 
		.s0 { fill: #FF6C0C } 
	</style>
	<path fill-rule="evenodd" class="s0" d="m29.2 37c0.4 2-0.7 3.6-2.6 3.6h-3.3l-0.3 3.8-1.7 20.6c-0.2 2-1.7 3.7-3.4 3.7h-6.2c-1.7 0-3.2-1.7-3.4-3.7l-1.6-20.6-0.3-3.7h-3.2c-1.8 0-2.8-1.6-2.4-3.6l3.3-15.2c0.4-2 2.5-3.6 4.5-3.6h12.8c2 0 4.1 1.6 4.5 3.6zm-14.2-21.8c-4.1 0-7.4-3.3-7.4-7.4 0-4.1 3.3-7.4 7.4-7.4 4.1 0 7.4 3.3 7.4 7.4 0 4.1-3.3 7.4-7.4 7.4z"/>
	<path fill-rule="evenodd" class="s0" d="m57.6 30.1c0.4 1.6-0.6 2.9-2 2.9h-2.7l-0.2 3-1.3 16.7c-0.1 1.6-1.4 3-2.8 3h-5c-1.4 0-2.6-1.3-2.8-3l-1.4-16.7-0.3-3h-2.6c-1.4 0-2.3-1.3-2-2.9l2.7-12.3c0.4-1.6 2-2.9 3.6-2.9h10.4c1.7 0 3.3 1.3 3.6 2.9zm-11.5-17.7c-3.3 0-6-2.7-6-6 0-3.3 2.7-6 6-6 3.3 0 6 2.7 6 6 0 3.3-2.7 6-6 6z"/>
	<path class="s0" d="m46.2 68.7c-3.2 0-6.3 0-9.5 0-2.2 0-3.2-0.6-3.3-2.2-0.1-2.3-0.1-4.7 0-7 0-1.5 1.1-2.3 3.2-2.3 6.3 0 12.7 0 19 0 2.3 0 3.2 0.8 3.3 2.4 0 2.3 0 4.6 0 6.8 0 1.6-1 2.2-3.2 2.2-3.2 0.1-6.4 0.1-9.5 0.1z"/>
	<path fill-rule="evenodd" class="s0" d="m86.6 24.4c0.3 1.3-0.5 2.4-1.7 2.4h-2.2l-0.2 2.4-1.1 13.5c-0.1 1.3-1.1 2.4-2.2 2.4h-4.1c-1.1 0-2.1-1.1-2.2-2.4l-1.1-13.5-0.2-2.4h-2.1c-1.2 0-1.9-1.1-1.6-2.4l2.2-10c0.3-1.3 1.6-2.4 3-2.4h8.5c1.3 0 2.7 1.1 3 2.4zm-9.4-14.3c-2.7 0-4.9-2.2-4.9-4.9 0-2.7 2.2-4.9 4.9-4.9 2.7 0 4.9 2.2 4.9 4.9 0 2.7-2.2 4.9-4.9 4.9z"/>
	<path class="s0" d="m77.3 68.7c-3.2 0-6.3 0-9.5 0-2.2 0-3.2-1.2-3.3-4.2-0.1-4.4-0.1-8.9 0-13.3 0-2.9 1.1-4.3 3.2-4.4 6.3-0.1 12.7-0.1 19 0 2.3 0 3.2 1.4 3.3 4.6 0 4.3 0 8.7 0 13 0 3-1 4.2-3.2 4.3-3.2 0-6.3 0-9.5 0z"/>
</svg>