<svg width="100" height="125" viewBox="0 0 100 125" fill="none" xmlns="http://www.w3.org/2000/svg">
<!-- Bottom Arrow -->
<path d="M56.6 79.6L50 86.2L43.4 79.6C42.6 78.8 41.4 78.8 40.6 79.6C39.8 80.4 39.8 81.6 40.6 82.4L48.6 90.4C49 90.8 49.5 91 50 91C50.5 91 51 90.8 51.4 90.4L59.4 82.4C60.2 81.6 60.2 80.4 59.4 79.6C58.6 78.8 57.4 78.8 56.6 79.6Z" fill="#FF8A3E" fill-opacity="0.79"/>
<!-- Top Arrow -->
<path d="M59.4 68.6C58.6 67.8 57.4 67.8 56.6 68.6L50 75.2L43.4 68.6C42.6 67.8 41.4 67.8 40.6 68.6C39.8 69.4 39.8 70.6 40.6 71.4L48.6 79.4C49 79.8 49.5 80 50 80C50.5 80 51 79.8 51.4 79.4L59.4 71.4C60.2 70.6 60.2 69.4 59.4 68.6Z" fill="#FF8A3E" fill-opacity="0.79"/>
<!-- Scroll Wheel -->
<path d="M68 45V27C68 17.1 59.9 9 50 9C40.1 9 32 17.1 32 27V45C32 54.9 40.1 63 50 63C59.9 63 68 54.9 68 45ZM50 59C42.3 59 36 52.7 36 45V27C36 19.3 42.3 13 50 13C57.7 13 64 19.3 64 27V45C64 52.7 57.7 59 50 59Z" fill="#FF8A3E" fill-opacity="0.79"/>
<!-- Mouse Body -->
<path d="M50 20C48.9 20 48 20.9 48 22V28C48 29.1 48.9 30 50 30C51.1 30 52 29.1 52 28V22C52 20.9 51.1 20 50 20Z" fill="#FF8A3E" fill-opacity="0.79"/>
</svg>
