<svg version="1.2" xmlns="http://www.w3.org/2000/svg" viewBox="0 0 188 33" width="188" height="33">
	<title>lockheed-martin-1-svg</title>
	<style>
		.s0 { fill: #FF6C0C } 
		.s1 { fill: #FF6C0C } 
	</style>
	<g>
		<path fill-rule="evenodd" class="s0" d="m172.1 20.6c-1.8 7.1-3.1 11.6-3.1 11.7-0.1 0.2-0.3 0.1-0.2 0 0-0.1 0.9-4.6 2.4-11.3-8.8 4.5-21.4 10.9-21.5 10.9-0.2 0.1-0.3 0-0.1-0.1 0 0 13.5-7.3 21.9-11.8 0.5-2.1 0.8-3.9 1.2-5.9l-6.7-0.1c-4.4 4.4-7.5 7.2-7.6 7.3-0.2 0.2-0.3 0.1-0.2-0.1 0.1-0.1 2.4-2.6 6.7-7.2 0 0-53.2-0.9-53.3-0.9-0.4 0-0.4-0.2 0-0.2h54.4c5.5-5.9 11.6-12.5 11.6-12.5 0 0-1.6 5.7-3.4 12.5h13.7c0 0-7.9 3.7-15.8 7.7zm0.9-7.7c1-4.5 1.6-7.3 1.6-7.3 0 0-3.4 3.3-7.5 7.3zm-0.6 6.6c5.6-3 9.7-5.2 9.7-5.2l-8.3-0.2c-0.5 1.9-0.9 3.5-1.4 5.4z"/>
		<path fill-rule="evenodd" class="s1" d="m2.1 16.9h2.4l-0.9 4.5h2.2l-0.3 1.7h-4.7zm12-0.1c2.2 0 3 1.3 2.5 3.2-0.4 1.9-1.7 3.2-3.8 3.2-2.1 0-2.9-1.3-2.4-3.2 0.3-1.9 1.7-3.2 3.7-3.2zm-1 4.8c0.4 0 0.7-0.2 1-1.6 0.3-1.4 0.1-1.6-0.3-1.6-0.3 0-0.7 0.2-0.9 1.6-0.4 1.4-0.1 1.6 0.2 1.6zm13.7-0.8c-0.4 1.7-1.8 2.4-3.4 2.4-2.1 0-2.8-1.3-2.4-3.2 0.3-2 1.7-3.2 3.8-3.2 1.5 0 2.7 0.6 2.3 2.4h-2.2c0.1-0.7-0.1-0.8-0.4-0.8-0.7 0-0.8 0.6-1 1.6-0.3 0.9-0.4 1.6 0.2 1.6 0.4 0 0.7-0.1 0.8-0.8zm6.1-3.9h2.3l-0.5 2.7 1.8-2.7h2.6l-2.2 2.9 1.1 3.3h-2.6l-0.9-2.8-0.6 2.8h-2.3zm13.8 3.8h-1.1l-0.4 2.4h-2.4l1.3-6.2h2.4l-0.5 2h1.1l0.4-2h2.4l-1.3 6.2h-2.4zm8.8-3.9h4.6l-0.3 1.6h-2.4l-0.1 0.7h2.1l-0.3 1.6h-2.2l-0.1 0.6h2.4l-0.4 1.7h-4.7zm10.2 0h4.6l-0.3 1.6h-2.3l-0.2 0.7h2.2l-0.3 1.5h-2.2l-0.1 0.7h2.4l-0.4 1.6h-4.7zm10.2 0h2.9c2.4 0 3 1.4 2.6 3.2-0.4 1.8-1.9 3-3.8 3h-3zm1.4 4.7h0.3c0.4 0 0.7 0 0.8-0.3 0.3-0.3 0.4-0.7 0.5-1.3 0.1-0.6 0.2-1 0-1.3 0-0.2-0.2-0.3-0.6-0.3h-0.2zm19.9-2.9l-1.8 4.3h-2.2v-4.3l-0.9 4.3h-2.1l1.3-6.1h3.4l-0.1 3.6 1.4-3.6h3.4l-1.3 6.1h-2.1zm9.1-1.8h3.1l0.7 6.2h-2.5l-0.1-1h-1.7l-0.4 1h-2.3zm1.2 3.7v-2.3l-1.1 2.3zm9.1-3.7h3.6c1.3 0 2 0.4 1.8 1.6-0.2 0.7-0.6 1.2-1.6 1.4v0.1c0.6 0 0.9 0.3 0.9 0.8 0.1 0.5-0.2 1.3-0.1 2.3h-2.3c-0.1-0.5 0-1.3 0.1-1.8 0-0.3-0.2-0.4-0.6-0.4h-0.3l-0.4 2.2h-2.4zm1.9 2.6c0.6 0 0.9-0.2 1-0.6 0.1-0.5-0.2-0.6-0.7-0.6h-0.2l-0.2 1.2h0.1zm10.1-0.9h-1.5l0.4-1.7h5.4l-0.4 1.7h-1.4l-1 4.5h-2.5zm9.7-1.8h2.4l-1.3 6.2h-2.4zm8.2 0h2.9l0.5 3.7 0.9-3.7h1.9l-1.3 6.2h-2.9l-0.5-3.8h-0.1l-0.7 3.8h-2z"/>
	</g>
</svg>