<svg version="1.2" xmlns="http://www.w3.org/2000/svg" viewBox="0 0 188 53" width="188" height="53">
	<title>nasa-3-svg</title>
	<style>
		.s0 { fill: #FF6C0C } 
	</style>
	<g>
		<path fill-rule="evenodd" class="s0" d="m100.4 51.2h-11.2l-12.1-37.5c-0.1-0.5-0.3-0.9-0.6-1.3-0.3-0.3-0.7-0.5-1.2-0.5-0.9 0-1.6 0.6-1.9 1.8l-12 37.5-11.9-0.1 13.1-42.1c0.9-2.8 2.5-5 4.9-6.4 2.4-1.5 5-2.2 8-2.2 5.4 0 9.3 2.4 11.7 7.2l0.5 1 9.7 31.3 0.4 0.6h26c1.3 0 2.2-0.4 3.1-1.3 0.8-1 1.3-2.2 1.3-3.5 0-1.1-0.3-2-1-2.8-0.6-0.8-1.3-1.1-2.3-1.1h-16.3c-3.8 0-6.9-1.7-9.6-4.9-2.4-3-3.5-6.6-3.5-10.8 0-4.2 1.1-7.7 3.5-10.4 2.7-2.8 6.4-4.3 11.2-4.3h26.9v10.5h-26.4c-1.2 0-2.2 0.6-2.9 1.6-0.7 1-1.1 2.2-1.1 3.5 0 1.2 0.4 2.2 1.1 3.1 0.6 0.8 1.5 1.3 2.6 1.3h14.1c4.1 0 14.8 5.9 14.8 14.2 0 4.2-1.2 7.8-3.7 10.8-2.6 3.2-5.7 4.8-9.5 4.8h-25.7zm-88.5-0.1h-11.1v-38.1c0-4.9 1.2-8.4 3.8-10.4 1.9-1.5 4.9-2.3 9-2.3 3.4 0 6.2 1 8.8 2.9 2.5 1.8 4.2 4.4 5.1 7.5l7.2 25.3 1.2 3.5c0 0.6 0.4 1.1 0.8 1.5 0.5 0.4 1 0.6 1.6 0.4 1-0.1 1.5-0.7 1.5-1.5v-38.4h11.3v37.9c0 4.2-1 7.3-3.1 9.6-1.9 2.3-4.9 3.4-8.8 3.4-3.4 0-6.3-0.6-8.6-1.8-2.7-1.4-4.5-3.6-5.3-6.4l-8.2-28.8-0.6-1.9c-0.2-0.7-0.6-1.2-1.1-1.7-0.5-0.4-1.1-0.5-1.7-0.4-0.6 0.1-1 0.4-1.4 1q-0.1 0.2-0.2 0.4-0.1 0.2-0.1 0.5-0.1 0.2-0.1 0.4 0 0.2 0 0.5zm176 0.1h-11.3l-12.1-37.5c-0.1-0.5-0.3-0.9-0.6-1.3-0.3-0.3-0.7-0.5-1.2-0.5-0.8 0-1.5 0.6-1.8 1.8l-12 37.5-11.9-0.1 13.1-42.1c0.8-2.8 2.4-4.9 4.9-6.4 2.3-1.5 5-2.2 7.9-2.2 5.4 0 9.4 2.4 11.7 7.2l0.5 1 12.8 42.6z"/>
	</g>
</svg>