<svg version="1.2" xmlns="http://www.w3.org/2000/svg" viewBox="0 0 2478 306" width="2478" height="306">
	<title>spacex-logo-svgrepo-com-svg</title>
	<style>
		.s0 { fill: #FF6C0C } 
		.s1 { fill: #FF6C0C } 
	</style>
	<path fill-rule="evenodd" class="s0" d="m635.3 149.3v42.6c0 26.9-17.9 37.4-56.8 37.4h-153.9l-5.3 5.2v70.3h-57.5v-186.1l7.5-6h209.2c38.9 0 56.8 10.5 56.8 36.6zm-56.8 12c0-12.7-9-15-26.9-15h-127l-5.3 5.3v39.6l6 5.2h126.3c18.7 0 26.9-2.2 26.9-14.9zm193.6-50.8l145.7 194.2h-66.5l-25.4-35.1-12-6.7h-164.4l28.4-35.1h110.6l3-6.7-50.1-73.3zm636 161.4h194.3v32.9h-260.1v-127.8h176.4v32.9h-111.4l-6 5.2v52.3zm-65.7-159.1h262.3v35.8h-262.3zm-298.2 38.9v112.1l6 6h210c-1.5 27.6-18 35.8-60.6 35.8h-151.7c-47.8 0-62.7-9.7-62.7-45.5v-101.7c0-36.6 14.9-45.6 62.7-45.6h151.7c41.9 0 59.1 7.5 62.1 34.4h-211.5zm-760.8 81.5v26.1c0 36.6-15.7 45.6-63.5 45.6h-156.9c-41.1 0-58.3-6.7-62-32.1 0-0.8 5.2-3.8 5.2-3.8h221.2l3.7-5.2v-34.4l-4.5-4.4h-153.1c-47.9 0-62.8-9.8-62.8-45.6v-21.7c0-36.6 14.9-45.6 62.8-45.6h144.2c33.6 0 52.3 9 59 26.9l-3 6.7h-207l-4.5 3.8v32.9l4.5 5.2h153.2c47.8 0 63.5 9.7 63.5 45.6zm1549.9-73.3c-20.9 10.5-41.1 21-59 31.4l-95.7-70.2 4.5-9h86.7zm63.5 44.9l125.6 91.9-3.8 8.2h-86.7l-84.4-61.3c15.7-13.4 32.9-26.1 49.3-38.8z"/>
	<path class="s1" d="m1757 304.8h-78.5l-6.7-10.5c53-51.6 290.7-271.3 807.1-294.4 0 0-432.7 14.9-721.9 304.9z"/>
</svg>